<?xml version="1.0" encoding="utf-8"?>
<!-- Generator: Adobe Illustrator 24.2.3, SVG Export Plug-In . SVG Version: 6.00 Build 0)  -->
<svg version="1.1" id="Layer_1" xmlns="http://www.w3.org/2000/svg" xmlns:xlink="http://www.w3.org/1999/xlink" x="0px" y="0px"
	 viewBox="0 0 852 260" style="enable-background:new 0 0 852 260;" xml:space="preserve">
<style type="text/css">
	.st0{fill:#FFFFFF;}
</style>
<g>
	<g>
		<g>
			<g>
				<path class="st0" d="M339.6,175.3c-8.3,0-15.5-1.8-21.4-5.3c-5.9-3.5-10.5-8.5-13.6-15c-3.2-6.5-4.7-14.2-4.7-23.2
					c0-8.9,1.6-16.6,4.7-23.1c3.2-6.5,7.7-11.5,13.6-15c5.9-3.5,13.1-5.3,21.4-5.3c5,0,9.7,0.7,14.2,2.2c4.5,1.4,8.4,3.5,11.7,6.1
					c1.4,1,2.1,2.1,2.3,3.4c0.2,1.3,0,2.4-0.7,3.4c-0.6,1-1.5,1.6-2.7,1.9c-1.2,0.3-2.5-0.1-3.9-1.1c-5.7-4.6-12.6-6.8-20.7-6.8
					c-9.5,0-16.8,3-21.9,9c-5,6-7.6,14.5-7.6,25.3c0,11,2.5,19.5,7.6,25.5c5,6,12.3,9,21.9,9c8.1,0,15.1-2.3,20.9-7
					c1.4-1,2.7-1.3,3.9-1.1c1.2,0.2,2,0.8,2.6,1.8s0.8,2,0.7,3.2c-0.2,1.2-0.8,2.3-2,3.2c-3.4,2.9-7.4,5.1-11.9,6.5
					C349.5,174.6,344.7,175.3,339.6,175.3z"/>
				<path class="st0" d="M402.5,175.3c-5.7,0-10.6-1.2-14.8-3.7c-4.2-2.5-7.4-6-9.7-10.5c-2.3-4.5-3.4-9.9-3.4-16
					c0-6.2,1.1-11.5,3.4-16c2.3-4.5,5.5-8,9.7-10.5c4.2-2.5,9.1-3.7,14.8-3.7c5.6,0,10.5,1.2,14.7,3.7c4.2,2.5,7.4,6,9.7,10.5
					c2.3,4.5,3.4,9.9,3.4,16c0,6.2-1.1,11.5-3.4,16c-2.3,4.5-5.5,8-9.7,10.5C413,174.1,408.1,175.3,402.5,175.3z M402.5,167.5
					c5.4,0,9.8-1.9,13.1-5.8c3.3-3.9,4.9-9.4,4.9-16.6c0-7.3-1.6-12.9-4.9-16.7c-3.3-3.8-7.6-5.8-13.1-5.8c-5.5,0-9.9,1.9-13.2,5.8
					c-3.2,3.8-4.9,9.4-4.9,16.7c0,7.2,1.6,12.8,4.9,16.6C392.6,165.6,397,167.5,402.5,167.5z"/>
				<path class="st0" d="M449.9,175.1c-3.2,0-4.8-1.7-4.8-5V120c0-3.3,1.6-4.9,4.7-4.9c3.2,0,4.8,1.6,4.8,4.9v5.9
					c1.9-3.7,4.6-6.4,8.2-8.3c3.5-1.8,7.5-2.8,11.9-2.8c13.9,0,20.8,7.7,20.8,23.1V170c0,3.4-1.6,5-4.8,5c-3.3,0-4.9-1.7-4.9-5
					v-31.6c0-5.4-1.1-9.4-3.2-12c-2.1-2.5-5.5-3.8-10.1-3.8c-5.4,0-9.6,1.7-12.8,5c-3.2,3.3-4.7,7.7-4.7,13.3V170
					C454.8,173.4,453.1,175.1,449.9,175.1z"/>
				<path class="st0" d="M538,175.3c-5.8,0-10.9-1.3-15.1-3.8c-4.2-2.5-7.5-6.1-9.8-10.7c-2.3-4.6-3.4-10-3.4-16.2
					c0-9.3,2.5-16.6,7.6-21.9c5-5.3,12-8,20.8-8c2.9,0,5.9,0.5,9,1.4c3.1,0.9,6,2.4,8.5,4.5c1.4,1,1.9,2.2,1.7,3.6
					c-0.2,1.4-0.9,2.5-2,3.2c-1.2,0.7-2.5,0.6-4-0.5c-2.2-1.6-4.3-2.7-6.4-3.4c-2.1-0.6-4.2-1-6.2-1c-6.1,0-10.8,1.9-14.1,5.7
					c-3.3,3.8-4.9,9.3-4.9,16.4c0,7,1.6,12.5,4.9,16.5c3.3,4,8,6.1,14.1,6.1c2,0,4.1-0.3,6.2-1c2.1-0.6,4.3-1.8,6.4-3.4
					c1.5-1,2.8-1.2,4-0.4c1.1,0.8,1.7,1.9,1.9,3.3c0.1,1.4-0.5,2.6-1.7,3.5c-2.6,2.1-5.4,3.6-8.4,4.5
					C543.9,174.9,540.9,175.3,538,175.3z"/>
				<path class="st0" d="M592,175.3c-5.7,0-10.6-1.2-14.8-3.7c-4.2-2.5-7.4-6-9.7-10.5c-2.3-4.5-3.4-9.9-3.4-16
					c0-6.2,1.1-11.5,3.4-16c2.3-4.5,5.5-8,9.7-10.5c4.2-2.5,9.1-3.7,14.8-3.7c5.6,0,10.5,1.2,14.7,3.7c4.2,2.5,7.4,6,9.7,10.5
					c2.3,4.5,3.4,9.9,3.4,16c0,6.2-1.1,11.5-3.4,16c-2.3,4.5-5.5,8-9.7,10.5C602.5,174.1,597.6,175.3,592,175.3z M592,167.5
					c5.4,0,9.8-1.9,13.1-5.8c3.3-3.9,4.9-9.4,4.9-16.6c0-7.3-1.6-12.9-4.9-16.7c-3.3-3.8-7.6-5.8-13.1-5.8c-5.5,0-9.9,1.9-13.2,5.8
					c-3.2,3.8-4.9,9.4-4.9,16.7c0,7.2,1.6,12.8,4.9,16.6C582,165.6,586.4,167.5,592,167.5z"/>
				<path class="st0" d="M655.1,175.3c-14,0-21-7.7-21-23.2V120c0-3.3,1.6-4.9,4.8-4.9c3.3,0,4.9,1.6,4.9,4.9V152
					c0,5.2,1.1,9,3.2,11.5c2.1,2.5,5.5,3.7,10,3.7c5,0,9-1.7,12.1-5c3.1-3.3,4.7-7.7,4.7-13.3V120c0-3.3,1.6-4.9,4.9-4.9
					c3.2,0,4.8,1.6,4.8,4.9V170c0,3.4-1.6,5-4.7,5c-3.2,0-4.8-1.7-4.8-5v-5.6c-1.8,3.5-4.4,6.2-7.7,8.1
					C663,174.4,659.3,175.3,655.1,175.3z"/>
				<path class="st0" d="M706.8,175.1c-3.3,0-4.9-1.7-4.9-5V120c0-3.3,1.6-4.9,4.7-4.9c3.2,0,4.8,1.6,4.8,4.9v6.4
					c1.6-3.7,4.1-6.5,7.4-8.5c3.4-2,7.4-3,12-3.2c2.6-0.2,3.9,1,4.1,3.8c0.2,2.8-1.2,4.4-4.3,4.7l-1.9,0.2
					c-5.5,0.5-9.7,2.2-12.6,5.2c-2.9,3-4.3,7.1-4.3,12.3V170C711.7,173.4,710.1,175.1,706.8,175.1z"/>
				<path class="st0" d="M763.9,175.3c-3.6,0-7.2-0.5-10.9-1.4c-3.6-0.9-7-2.4-10.1-4.5c-1.4-0.9-2.1-2-2.1-3.4
					c0-1.4,0.6-2.5,1.6-3.3c1-0.8,2.4-0.8,4,0c3.1,1.9,6.1,3.3,9.1,4c2.9,0.8,5.8,1.1,8.7,1.1c4.6,0,8-0.8,10.3-2.5
					c2.3-1.7,3.5-4,3.5-6.8c0-2.2-0.8-4-2.3-5.3c-1.5-1.3-3.9-2.3-7.2-3.1l-10.9-2.4c-9.9-2.2-14.9-7.3-14.9-15.4
					c0-5.3,2.1-9.5,6.3-12.7c4.2-3.2,9.7-4.8,16.5-4.8c3.4,0,6.8,0.5,10,1.4c3.2,0.9,6.1,2.4,8.6,4.4c1.4,1,2,2.1,1.8,3.5
					c-0.2,1.4-0.8,2.4-1.9,3.2c-1.1,0.8-2.4,0.7-3.9-0.3c-2.4-1.6-4.8-2.8-7.3-3.5c-2.5-0.8-4.9-1.1-7.3-1.1
					c-4.5,0-7.9,0.9-10.2,2.6c-2.3,1.8-3.5,4.1-3.5,7c0,4.5,3,7.4,8.9,8.6l10.9,2.3c5.1,1.1,9,2.9,11.7,5.3c2.6,2.4,4,5.7,4,9.9
					c0,5.4-2.1,9.6-6.4,12.7C776.6,173.8,771,175.3,763.9,175.3z"/>
				<path class="st0" d="M828.3,175.3c-9.2,0-16.5-2.7-21.9-8.1c-5.4-5.4-8-12.8-8-22c0-6,1.2-11.3,3.6-15.9
					c2.4-4.6,5.7-8.2,9.9-10.7c4.2-2.5,9.1-3.8,14.6-3.8c7.9,0,14.1,2.5,18.6,7.6c4.5,5.1,6.7,12.1,6.7,21c0,2.5-1.4,3.7-4.2,3.7
					h-39.8c0.3,6.6,2.2,11.7,5.8,15.2c3.5,3.5,8.4,5.2,14.7,5.2c2.6,0,5.3-0.3,8-1c2.7-0.7,5.4-1.9,7.9-3.7c1.8-1.2,3.4-1.4,4.6-0.7
					c1.2,0.7,1.9,1.8,1.9,3.3c0,1.5-0.8,2.8-2.5,3.9c-2.6,1.9-5.8,3.4-9.4,4.4C835.3,174.8,831.8,175.3,828.3,175.3z M826.8,122
					c-5.5,0-9.9,1.7-13.1,5.2c-3.2,3.4-5.1,8-5.6,13.6h35.4c-0.2-5.9-1.8-10.5-4.6-13.8C836,123.6,832,122,826.8,122z"/>
			</g>
		</g>
	</g>
	<g>
		<path class="st0" d="M73.9,259.8c-1.1,0.2-2.2,0-3.3-0.6c-2.3-1.3-3.1-4.3-1.8-6.6l41.3-71.6l3.7,1.2c20.1,6.3,42.3,0.3,56.6-15.1
			l2.6-2.8l41,23.7c2.3,1.3,3.1,4.3,1.8,6.6c-1.3,2.3-4.3,3.1-6.6,1.8l-34.4-19.9c-15.9,15.2-38.7,21.3-60.1,16l-37.5,65
			C76.5,258.7,75.3,259.5,73.9,259.8z"/>
		<path class="st0" d="M256.1,191.7c-1.1,0.2-2.2,0-3.3-0.6l-71.4-41.2l1.2-3.7c6.4-20.2,0.4-42.5-15.1-56.8l-2.9-2.6l23.8-40.7
			c1.3-2.3,4.3-3.1,6.6-1.7c2.3,1.3,3.1,4.3,1.7,6.6L176.9,85c15.3,15.9,21.4,38.9,16.1,60.3l64.8,37.4c2.3,1.3,3.1,4.3,1.8,6.6
			C258.7,190.6,257.5,191.4,256.1,191.7z"/>
		<path class="st0" d="M87.1,95.4L46.2,71.8c-2.3-1.3-3.1-4.3-1.8-6.6c1.3-2.3,4.3-3.1,6.6-1.8l34.3,19.8
			c15.9-15.3,38.8-21.5,60.3-16.2L183,2.3c1.3-2.3,4.3-3.1,6.6-1.8c2.3,1.3,3.1,4.3,1.8,6.6l-41.2,71.3l-3.7-1.2
			C126.3,70.9,104,77,89.7,92.5L87.1,95.4z"/>
		<path class="st0" d="M68.7,216.2c-1.1,0.2-2.2,0-3.3-0.6c-2.3-1.3-3.1-4.3-1.8-6.6l19.9-34.5c-15.2-15.9-21.4-38.7-16.2-60L2.5,77
			c-2.3-1.3-3.1-4.3-1.8-6.6c1.3-2.3,4.3-3.1,6.6-1.8l71.4,41.2l-1.1,3.7c-6.2,20.1-0.2,42.3,15.2,56.5l2.8,2.6L72,213.8
			C71.3,215.1,70,215.9,68.7,216.2z"/>
		<path class="st0" d="M86.2,89.3"/>
		<path class="st0" d="M174,170.4"/>
		<path class="st0" d="M89.6,173.7"/>
	</g>
</g>
</svg>
